<svg width="24" height="24" viewBox="0 0 24 24" fill="none" xmlns="http://www.w3.org/2000/svg">
    <path fill-rule="evenodd" clip-rule="evenodd" d="M12 2C6.47715 2 2 6.47715 2 12C2 17.5228 6.47715 22 12 22C17.5228 22 22 17.5228 22 12C22 6.47715 17.5228 2 12 2ZM10 10.5C10 10.2239 10.2239 10 10.5 10H12C12.2761 10 12.5 10.2239 12.5 10.5L12.5 15.5C12.5 15.7761 12.2761 16 12 16C11.7239 16 11.5 15.7761 11.5 15.5L11.5 11H10.5C10.2239 11 10 10.7761 10 10.5ZM12 8C11.7239 8 11.5 8.22386 11.5 8.5C11.5 8.77614 11.7239 9 12 9C12.2761 9 12.5 8.77614 12.5 8.5C12.5 8.22386 12.2761 8 12 8Z" fill="#a1a1aa"/>
</svg>
