<svg width="24" height="24" viewBox="0 0 24 24" fill="none" xmlns="http://www.w3.org/2000/svg">
    <path fill-rule="evenodd" clip-rule="evenodd" d="M9.04096 4.24919C10.4145 2.07449 13.5859 2.07449 14.9594 4.24919L21.5164 14.6311C22.9883 16.9617 21.3136 20.0001 18.5572 20.0001H5.44315C2.68671 20.0001 1.01201 16.9617 2.48393 14.6311L9.04096 4.24919ZM12 8.5C12.2761 8.5 12.5 8.72386 12.5 9V13.5C12.5 13.7761 12.2761 14 12 14C11.7239 14 11.5 13.7761 11.5 13.5V9C11.5 8.72386 11.7239 8.5 12 8.5ZM12.75 16C12.75 16.4142 12.4142 16.75 12 16.75C11.5858 16.75 11.25 16.4142 11.25 16C11.25 15.5858 11.5858 15.25 12 15.25C12.4142 15.25 12.75 15.5858 12.75 16Z" fill="#a1a1aa"/>
</svg>
